<?xml version="1.0" encoding="utf-8"?>
<!-- Uploaded to: SVG Repo, www.svgrepo.com, Generator: SVG Repo Mixer Tools -->
<svg width="800px" height="800px" viewBox="0 0 1024 1024" class="icon"  version="1.1" xmlns="http://www.w3.org/2000/svg"><path d="M550.7 483.7m-153.7 0a153.7 153.7 0 1 0 307.4 0 153.7 153.7 0 1 0-307.4 0Z" fill="#FBBA22" /><path d="M508 545.2c-33.1 0-62.5 15.9-81.6 40.8-12.1-16.6-31.3-27.5-53-27.5-32.8 0-60 24.7-65.3 57h-25.4c-38.7 0-70.1 32.4-70.1 72.4 0 40 31.4 72.4 70.1 72.4H508c57.5 0 104.2-48.2 104.2-107.6 0-59.4-46.7-107.5-104.2-107.5z" fill="#FFFFFF" /><path d="M702 347.7c3.9 0 7.9-1.5 10.9-4.5l44.2-44.2c6-6 6-15.7 0-21.7s-15.7-6-21.7 0l-44.2 44.2c-6 6-6 15.7 0 21.7 3 3 6.9 4.5 10.8 4.5zM712.9 624.2c-6-6-15.7-6-21.7 0s-6 15.7 0 21.7l44.2 44.2c3 3 6.9 4.5 10.9 4.5 3.9 0 7.9-1.5 10.9-4.5 6-6 6-15.7 0-21.7l-44.3-44.2zM388.4 343.2c3 3 6.9 4.5 10.9 4.5 3.9 0 7.9-1.5 10.9-4.5 6-6 6-15.7 0-21.7L366 277.3c-6-6-15.7-6-21.7 0s-6 15.7 0 21.7l44.1 44.2zM550.7 285c8.5 0 15.4-6.9 15.4-15.4V207c0-8.5-6.9-15.4-15.4-15.4s-15.4 6.9-15.4 15.4v62.6c0 8.5 6.9 15.4 15.4 15.4zM274.1 499.1h62.6c8.5 0 15.4-6.9 15.4-15.4s-6.9-15.4-15.4-15.4h-62.6c-8.5 0-15.4 6.9-15.4 15.4s6.9 15.4 15.4 15.4zM827.3 468.4h-62.6c-8.5 0-15.4 6.9-15.4 15.4s6.9 15.4 15.4 15.4h62.6c8.5 0 15.4-6.9 15.4-15.4 0-8.6-6.9-15.4-15.4-15.4z" fill="#211F1E" /><path d="M719.7 483.7c0-93.2-75.8-169-169-169s-169 75.8-169 169c0 21.9 4.2 42.8 11.8 62-6.5-1.7-13.2-2.6-20-2.6-35.6 0-66.4 23.3-77.3 57h-13.3c-47.1 0-85.5 39.4-85.5 87.8s38.4 87.8 85.5 87.8H508c65.9 0 119.6-55.2 119.6-122.9 0-6.1-0.6-12.1-1.4-17.9 55.3-27.8 93.5-85.1 93.5-151.2zM508 745H282.7c-30.2 0-54.8-25.6-54.8-57 0-31.5 24.6-57 54.8-57h25.4c7.5 0 14-5.5 15.2-12.9 4.2-25.6 25.2-44.1 50.1-44.1 16 0 30.8 7.7 40.6 21.1 2.8 3.9 7.4 6.3 12.2 6.3 4.9 0.1 9.4-2.2 12.4-6 17-22.1 42.3-34.8 69.4-34.8 49 0 88.8 41.4 88.8 92.2 0 50.8-39.9 92.2-88.8 92.2z m109.9-140.5c-18.3-43.9-60.7-74.7-109.9-74.7-27.5 0-53.5 9.6-74.5 26.9-13.3-21.2-21.1-46.2-21.1-73 0-76.3 62-138.3 138.3-138.3S689 407.4 689 483.7c0 51.9-28.8 97.1-71.1 120.8z" fill="#211F1E" /></svg>